{
 "cells": [
  {
   "cell_type": "code",
   "execution_count": 1,
   "metadata": {},
   "outputs": [],
   "source": [
    "import ffmpeg\n",
    "import os"
   ]
  },
  {
   "cell_type": "code",
   "execution_count": 2,
   "metadata": {},
   "outputs": [],
   "source": [
    "mov_folder = \"ProjectMOVs\"\n",
    "mp4_folder = \"ProjectMp4s\""
   ]
  },
  {
   "cell_type": "code",
   "execution_count": null,
   "metadata": {},
   "outputs": [
    {
     "name": "stderr",
     "output_type": "stream",
     "text": [
      "ffmpeg version 6.1.1-3ubuntu5 Copyright (c) 2000-2023 the FFmpeg developers\n",
      "  built with gcc 13 (Ubuntu 13.2.0-23ubuntu3)\n",
      "  configuration: --prefix=/usr --extra-version=3ubuntu5 --toolchain=hardened --libdir=/usr/lib/x86_64-linux-gnu --incdir=/usr/include/x86_64-linux-gnu --arch=amd64 --enable-gpl --disable-stripping --disable-omx --enable-gnutls --enable-libaom --enable-libass --enable-libbs2b --enable-libcaca --enable-libcdio --enable-libcodec2 --enable-libdav1d --enable-libflite --enable-libfontconfig --enable-libfreetype --enable-libfribidi --enable-libglslang --enable-libgme --enable-libgsm --enable-libharfbuzz --enable-libmp3lame --enable-libmysofa --enable-libopenjpeg --enable-libopenmpt --enable-libopus --enable-librubberband --enable-libshine --enable-libsnappy --enable-libsoxr --enable-libspeex --enable-libtheora --enable-libtwolame --enable-libvidstab --enable-libvorbis --enable-libvpx --enable-libwebp --enable-libx265 --enable-libxml2 --enable-libxvid --enable-libzimg --enable-openal --enable-opencl --enable-opengl --disable-sndio --enable-libvpl --disable-libmfx --enable-libdc1394 --enable-libdrm --enable-libiec61883 --enable-chromaprint --enable-frei0r --enable-ladspa --enable-libbluray --enable-libjack --enable-libpulse --enable-librabbitmq --enable-librist --enable-libsrt --enable-libssh --enable-libsvtav1 --enable-libx264 --enable-libzmq --enable-libzvbi --enable-lv2 --enable-sdl2 --enable-libplacebo --enable-librav1e --enable-pocketsphinx --enable-librsvg --enable-libjxl --enable-shared\n",
      "  libavutil      58. 29.100 / 58. 29.100\n",
      "  libavcodec     60. 31.102 / 60. 31.102\n",
      "  libavformat    60. 16.100 / 60. 16.100\n",
      "  libavdevice    60.  3.100 / 60.  3.100\n",
      "  libavfilter     9. 12.100 /  9. 12.100\n",
      "  libswscale      7.  5.100 /  7.  5.100\n",
      "  libswresample   4. 12.100 /  4. 12.100\n",
      "  libpostproc    57.  3.100 / 57.  3.100\n",
      "Input #0, mov,mp4,m4a,3gp,3g2,mj2, from 'ProjectMOVs/long_image_left.MOV':\n",
      "  Metadata:\n",
      "    major_brand     : qt  \n",
      "    minor_version   : 0\n",
      "    compatible_brands: qt  \n",
      "    creation_time   : 2024-12-18T19:09:53.000000Z\n",
      "    com.apple.quicktime.location.accuracy.horizontal: 16.107976\n",
      "    com.apple.quicktime.full-frame-rate-playback-intent: 0\n",
      "    com.apple.quicktime.location.ISO6709: +40.1137-088.2246+223.086/\n",
      "    com.apple.quicktime.make: Apple\n",
      "    com.apple.quicktime.model: iPhone 15\n",
      "    com.apple.quicktime.software: 18.1.1\n",
      "    com.apple.quicktime.creationdate: 2024-12-18T13:09:53-0600\n",
      "  Duration: 00:01:24.72, start: 0.000000, bitrate: 8599 kb/s\n",
      "  Stream #0:0[0x1](und): Video: hevc (Main 10) (hvc1 / 0x31637668), yuv420p10le(tv, bt2020nc/bt2020/arib-std-b67), 1920x1080, 8348 kb/s, 29.99 fps, 30 tbr, 600 tbn (default)\n",
      "    Metadata:\n",
      "      creation_time   : 2024-12-18T19:09:53.000000Z\n",
      "      handler_name    : Core Media Video\n",
      "      vendor_id       : [0][0][0][0]\n",
      "      encoder         : HEVC\n",
      "    Side data:\n",
      "      DOVI configuration record: version: 1.0, profile: 8, level: 4, rpu flag: 1, el flag: 0, bl flag: 1, compatibility id: 4\n",
      "  Stream #0:1[0x2](und): Audio: aac (LC) (mp4a / 0x6134706D), 44100 Hz, stereo, fltp, 157 kb/s (default)\n",
      "    Metadata:\n",
      "      creation_time   : 2024-12-18T19:09:53.000000Z\n",
      "      handler_name    : Core Media Audio\n",
      "      vendor_id       : [0][0][0][0]\n",
      "  Stream #0:2[0x3](und): Data: none (mebx / 0x7862656D) (default)\n",
      "    Metadata:\n",
      "      creation_time   : 2024-12-18T19:09:53.000000Z\n",
      "      handler_name    : Core Media Metadata\n",
      "  Stream #0:3[0x4](und): Data: none (mebx / 0x7862656D), 23 kb/s (default)\n",
      "    Metadata:\n",
      "      creation_time   : 2024-12-18T19:09:53.000000Z\n",
      "      handler_name    : Core Media Metadata\n",
      "  Stream #0:4[0x5](und): Data: none (mebx / 0x7862656D), 49 kb/s (default)\n",
      "    Metadata:\n",
      "      creation_time   : 2024-12-18T19:09:53.000000Z\n",
      "      handler_name    : Core Media Metadata\n",
      "  Stream #0:5[0x6](und): Data: none (mebx / 0x7862656D), 2 kb/s (default)\n",
      "    Metadata:\n",
      "      creation_time   : 2024-12-18T19:09:53.000000Z\n",
      "      handler_name    : Core Media Metadata\n",
      "  Stream #0:6[0x7](und): Data: none (mebx / 0x7862656D), 0 kb/s (default)\n",
      "    Metadata:\n",
      "      creation_time   : 2024-12-18T19:09:53.000000Z\n",
      "      handler_name    : Core Media Metadata\n",
      "Stream mapping:\n",
      "  Stream #0:0 -> #0:0 (hevc (native) -> h264 (libx264))\n",
      "  Stream #0:1 -> #0:1 (aac (native) -> aac (native))\n",
      "Press [q] to stop, [?] for help\n",
      "[libx264 @ 0x61c128118540] using cpu capabilities: MMX2 SSE2Fast SSSE3 SSE4.2 AVX FMA3 BMI2 AVX2\n",
      "[libx264 @ 0x61c128118540] profile High 10, level 4.0, 4:2:0, 10-bit\n",
      "[libx264 @ 0x61c128118540] 264 - core 164 r3108 31e19f9 - H.264/MPEG-4 AVC codec - Copyleft 2003-2023 - http://www.videolan.org/x264.html - options: cabac=1 ref=3 deblock=1:0:0 analyse=0x3:0x113 me=hex subme=7 psy=1 psy_rd=1.00:0.00 mixed_ref=1 me_range=16 chroma_me=1 trellis=1 8x8dct=1 cqm=0 deadzone=21,11 fast_pskip=1 chroma_qp_offset=-2 threads=24 lookahead_threads=4 sliced_threads=0 nr=0 decimate=1 interlaced=0 bluray_compat=0 constrained_intra=0 bframes=3 b_pyramid=2 b_adapt=1 b_bias=0 direct=1 weightb=1 open_gop=0 weightp=2 keyint=250 keyint_min=25 scenecut=40 intra_refresh=0 rc_lookahead=40 rc=crf mbtree=1 crf=23.0 qcomp=0.60 qpmin=0 qpmax=81 qpstep=4 ip_ratio=1.40 aq=1:1.00\n",
      "Output #0, mp4, to 'ProjectMp4s/long_image_left.mp4':\n",
      "  Metadata:\n",
      "    major_brand     : qt  \n",
      "    minor_version   : 0\n",
      "    compatible_brands: qt  \n",
      "    com.apple.quicktime.creationdate: 2024-12-18T13:09:53-0600\n",
      "    com.apple.quicktime.location.accuracy.horizontal: 16.107976\n",
      "    com.apple.quicktime.full-frame-rate-playback-intent: 0\n",
      "    com.apple.quicktime.location.ISO6709: +40.1137-088.2246+223.086/\n",
      "    com.apple.quicktime.make: Apple\n",
      "    com.apple.quicktime.model: iPhone 15\n",
      "    com.apple.quicktime.software: 18.1.1\n",
      "    encoder         : Lavf60.16.100\n",
      "  Stream #0:0(und): Video: h264 (avc1 / 0x31637661), yuv420p10le(tv, bt2020nc/bt2020/arib-std-b67, progressive), 1920x1080, q=2-31, 30 fps, 15360 tbn (default)\n",
      "    Metadata:\n",
      "      creation_time   : 2024-12-18T19:09:53.000000Z\n",
      "      handler_name    : Core Media Video\n",
      "      vendor_id       : [0][0][0][0]\n",
      "      encoder         : Lavc60.31.102 libx264\n",
      "    Side data:\n",
      "      cpb: bitrate max/min/avg: 0/0/0 buffer size: 0 vbv_delay: N/A\n",
      "      DOVI configuration record: version: 1.0, profile: 8, level: 4, rpu flag: 1, el flag: 0, bl flag: 1, compatibility id: 4\n",
      "  Stream #0:1(und): Audio: aac (LC) (mp4a / 0x6134706D), 44100 Hz, stereo, fltp, 128 kb/s (default)\n",
      "    Metadata:\n",
      "      creation_time   : 2024-12-18T19:09:53.000000Z\n",
      "      handler_name    : Core Media Audio\n",
      "      vendor_id       : [0][0][0][0]\n",
      "      encoder         : Lavc60.31.102 aac\n",
      "[out#0/mp4 @ 0x61c1281a8cc0] video:16057kB audio:1341kB subtitle:0kB other streams:0kB global headers:0kB muxing overhead: 0.524181%\n",
      "frame= 2541 fps=150 q=-1.0 Lsize=   17489kB time=00:01:24.70 bitrate=1691.4kbits/s speed=5.01x    \n",
      "[libx264 @ 0x61c128118540] frame I:11    Avg QP:28.14  size:105811\n",
      "[libx264 @ 0x61c128118540] frame P:640   Avg QP:31.36  size: 17698\n",
      "[libx264 @ 0x61c128118540] frame B:1890  Avg QP:34.39  size:  2090\n",
      "[libx264 @ 0x61c128118540] consecutive B-frames:  0.8%  0.0%  0.0% 99.2%\n",
      "[libx264 @ 0x61c128118540] mb I  I16..4: 42.0% 43.0% 15.0%\n",
      "[libx264 @ 0x61c128118540] mb P  I16..4:  3.3%  1.2%  0.0%  P16..4: 30.1%  5.3%  4.7%  0.0%  0.0%    skip:55.3%\n",
      "[libx264 @ 0x61c128118540] mb B  I16..4:  0.0%  0.0%  0.0%  B16..8: 22.8%  0.4%  0.1%  direct: 0.1%  skip:76.5%  L0:43.4% L1:54.0% BI: 2.6%\n",
      "[libx264 @ 0x61c128118540] 8x8 transform intra:31.1% inter:73.3%\n",
      "[libx264 @ 0x61c128118540] coded y,uvDC,uvAC intra: 11.9% 21.4% 3.2% inter: 3.2% 1.6% 0.0%\n",
      "[libx264 @ 0x61c128118540] i16 v,h,dc,p: 25% 28% 12% 36%\n",
      "[libx264 @ 0x61c128118540] i8 v,h,dc,ddl,ddr,vr,hd,vl,hu: 12% 16% 58%  1%  3%  2%  3%  1%  3%\n",
      "[libx264 @ 0x61c128118540] i4 v,h,dc,ddl,ddr,vr,hd,vl,hu: 24% 28% 13%  3%  6%  5% 10%  3%  8%\n",
      "[libx264 @ 0x61c128118540] i8c dc,h,v,p: 72% 14% 13%  1%\n",
      "[libx264 @ 0x61c128118540] Weighted P-Frames: Y:0.0% UV:0.0%\n",
      "[libx264 @ 0x61c128118540] ref P L0: 55.8% 24.7% 19.5%\n",
      "[libx264 @ 0x61c128118540] ref B L0: 81.0% 14.9%  4.2%\n",
      "[libx264 @ 0x61c128118540] ref B L1: 93.6%  6.4%\n",
      "[libx264 @ 0x61c128118540] kb/s:1552.89\n",
      "[aac @ 0x61c1295cee00] Qavg: 501.673\n",
      "ffmpeg version 6.1.1-3ubuntu5 Copyright (c) 2000-2023 the FFmpeg developers\n",
      "  built with gcc 13 (Ubuntu 13.2.0-23ubuntu3)\n",
      "  configuration: --prefix=/usr --extra-version=3ubuntu5 --toolchain=hardened --libdir=/usr/lib/x86_64-linux-gnu --incdir=/usr/include/x86_64-linux-gnu --arch=amd64 --enable-gpl --disable-stripping --disable-omx --enable-gnutls --enable-libaom --enable-libass --enable-libbs2b --enable-libcaca --enable-libcdio --enable-libcodec2 --enable-libdav1d --enable-libflite --enable-libfontconfig --enable-libfreetype --enable-libfribidi --enable-libglslang --enable-libgme --enable-libgsm --enable-libharfbuzz --enable-libmp3lame --enable-libmysofa --enable-libopenjpeg --enable-libopenmpt --enable-libopus --enable-librubberband --enable-libshine --enable-libsnappy --enable-libsoxr --enable-libspeex --enable-libtheora --enable-libtwolame --enable-libvidstab --enable-libvorbis --enable-libvpx --enable-libwebp --enable-libx265 --enable-libxml2 --enable-libxvid --enable-libzimg --enable-openal --enable-opencl --enable-opengl --disable-sndio --enable-libvpl --disable-libmfx --enable-libdc1394 --enable-libdrm --enable-libiec61883 --enable-chromaprint --enable-frei0r --enable-ladspa --enable-libbluray --enable-libjack --enable-libpulse --enable-librabbitmq --enable-librist --enable-libsrt --enable-libssh --enable-libsvtav1 --enable-libx264 --enable-libzmq --enable-libzvbi --enable-lv2 --enable-sdl2 --enable-libplacebo --enable-librav1e --enable-pocketsphinx --enable-librsvg --enable-libjxl --enable-shared\n",
      "  libavutil      58. 29.100 / 58. 29.100\n",
      "  libavcodec     60. 31.102 / 60. 31.102\n",
      "  libavformat    60. 16.100 / 60. 16.100\n",
      "  libavdevice    60.  3.100 / 60.  3.100\n",
      "  libavfilter     9. 12.100 /  9. 12.100\n",
      "  libswscale      7.  5.100 /  7.  5.100\n",
      "  libswresample   4. 12.100 /  4. 12.100\n",
      "  libpostproc    57.  3.100 / 57.  3.100\n",
      "Input #0, mov,mp4,m4a,3gp,3g2,mj2, from 'ProjectMOVs/long_image_right.MOV':\n",
      "  Metadata:\n",
      "    major_brand     : qt  \n",
      "    minor_version   : 0\n",
      "    compatible_brands: qt  \n",
      "    creation_time   : 2024-12-18T19:09:53.000000Z\n",
      "    com.apple.quicktime.location.accuracy.horizontal: 20.029796\n",
      "    com.apple.quicktime.full-frame-rate-playback-intent: 0\n",
      "    com.apple.quicktime.location.ISO6709: +40.1140-088.2246+222.251/\n",
      "    com.apple.quicktime.make: Apple\n",
      "    com.apple.quicktime.model: iPhone 13 Pro\n",
      "    com.apple.quicktime.software: 18.1.1\n",
      "    com.apple.quicktime.creationdate: 2024-12-18T13:09:53-0600\n",
      "  Duration: 00:01:24.77, start: 0.000000, bitrate: 53222 kb/s\n",
      "  Stream #0:0[0x1](und): Video: hevc (Main 10) (hvc1 / 0x31637668), yuv420p10le(tv, bt2020nc/bt2020/arib-std-b67), 3840x2160, 52885 kb/s, 59.98 fps, 60 tbr, 600 tbn (default)\n",
      "    Metadata:\n",
      "      creation_time   : 2024-12-18T19:09:53.000000Z\n",
      "      handler_name    : Core Media Video\n",
      "      vendor_id       : [0][0][0][0]\n",
      "      encoder         : HEVC\n",
      "    Side data:\n",
      "      DOVI configuration record: version: 1.0, profile: 8, level: 10, rpu flag: 1, el flag: 0, bl flag: 1, compatibility id: 4\n",
      "  Stream #0:1[0x2](und): Audio: aac (LC) (mp4a / 0x6134706D), 44100 Hz, stereo, fltp, 177 kb/s (default)\n",
      "    Metadata:\n",
      "      creation_time   : 2024-12-18T19:09:53.000000Z\n",
      "      handler_name    : Core Media Audio\n",
      "      vendor_id       : [0][0][0][0]\n",
      "  Stream #0:2[0x3](und): Data: none (mebx / 0x7862656D) (default)\n",
      "    Metadata:\n",
      "      creation_time   : 2024-12-18T19:09:53.000000Z\n",
      "      handler_name    : Core Media Metadata\n",
      "  Stream #0:3[0x4](und): Data: none (mebx / 0x7862656D), 24 kb/s (default)\n",
      "    Metadata:\n",
      "      creation_time   : 2024-12-18T19:09:53.000000Z\n",
      "      handler_name    : Core Media Metadata\n",
      "  Stream #0:4[0x5](und): Data: none (mebx / 0x7862656D), 99 kb/s (default)\n",
      "    Metadata:\n",
      "      creation_time   : 2024-12-18T19:09:53.000000Z\n",
      "      handler_name    : Core Media Metadata\n",
      "  Stream #0:5[0x6](und): Data: none (mebx / 0x7862656D), 5 kb/s (default)\n",
      "    Metadata:\n",
      "      creation_time   : 2024-12-18T19:09:53.000000Z\n",
      "      handler_name    : Core Media Metadata\n",
      "  Stream #0:6[0x7](und): Data: none (mebx / 0x7862656D), 0 kb/s (default)\n",
      "    Metadata:\n",
      "      creation_time   : 2024-12-18T19:09:53.000000Z\n",
      "      handler_name    : Core Media Metadata\n",
      "Stream mapping:\n",
      "  Stream #0:0 -> #0:0 (hevc (native) -> h264 (libx264))\n",
      "  Stream #0:1 -> #0:1 (aac (native) -> aac (native))\n",
      "Press [q] to stop, [?] for help\n",
      "[libx264 @ 0x5e35d94765c0] using cpu capabilities: MMX2 SSE2Fast SSSE3 SSE4.2 AVX FMA3 BMI2 AVX2\n",
      "[libx264 @ 0x5e35d94765c0] profile High 10, level 5.2, 4:2:0, 10-bit\n",
      "[libx264 @ 0x5e35d94765c0] 264 - core 164 r3108 31e19f9 - H.264/MPEG-4 AVC codec - Copyleft 2003-2023 - http://www.videolan.org/x264.html - options: cabac=1 ref=3 deblock=1:0:0 analyse=0x3:0x113 me=hex subme=7 psy=1 psy_rd=1.00:0.00 mixed_ref=1 me_range=16 chroma_me=1 trellis=1 8x8dct=1 cqm=0 deadzone=21,11 fast_pskip=1 chroma_qp_offset=-2 threads=24 lookahead_threads=4 sliced_threads=0 nr=0 decimate=1 interlaced=0 bluray_compat=0 constrained_intra=0 bframes=3 b_pyramid=2 b_adapt=1 b_bias=0 direct=1 weightb=1 open_gop=0 weightp=2 keyint=250 keyint_min=25 scenecut=40 intra_refresh=0 rc_lookahead=40 rc=crf mbtree=1 crf=23.0 qcomp=0.60 qpmin=0 qpmax=81 qpstep=4 ip_ratio=1.40 aq=1:1.00\n",
      "Output #0, mp4, to 'ProjectMp4s/long_image_right.mp4':\n",
      "  Metadata:\n",
      "    major_brand     : qt  \n",
      "    minor_version   : 0\n",
      "    compatible_brands: qt  \n",
      "    com.apple.quicktime.creationdate: 2024-12-18T13:09:53-0600\n",
      "    com.apple.quicktime.location.accuracy.horizontal: 20.029796\n",
      "    com.apple.quicktime.full-frame-rate-playback-intent: 0\n",
      "    com.apple.quicktime.location.ISO6709: +40.1140-088.2246+222.251/\n",
      "    com.apple.quicktime.make: Apple\n",
      "    com.apple.quicktime.model: iPhone 13 Pro\n",
      "    com.apple.quicktime.software: 18.1.1\n",
      "    encoder         : Lavf60.16.100\n",
      "  Stream #0:0(und): Video: h264 (avc1 / 0x31637661), yuv420p10le(tv, bt2020nc/bt2020/arib-std-b67, progressive), 3840x2160, q=2-31, 60 fps, 15360 tbn (default)\n",
      "    Metadata:\n",
      "      creation_time   : 2024-12-18T19:09:53.000000Z\n",
      "      handler_name    : Core Media Video\n",
      "      vendor_id       : [0][0][0][0]\n",
      "      encoder         : Lavc60.31.102 libx264\n",
      "    Side data:\n",
      "      cpb: bitrate max/min/avg: 0/0/0 buffer size: 0 vbv_delay: N/A\n",
      "      DOVI configuration record: version: 1.0, profile: 8, level: 10, rpu flag: 1, el flag: 0, bl flag: 1, compatibility id: 4\n",
      "  Stream #0:1(und): Audio: aac (LC) (mp4a / 0x6134706D), 44100 Hz, stereo, fltp, 128 kb/s (default)\n",
      "    Metadata:\n",
      "      creation_time   : 2024-12-18T19:09:53.000000Z\n",
      "      handler_name    : Core Media Audio\n",
      "      vendor_id       : [0][0][0][0]\n",
      "      encoder         : Lavc60.31.102 aac\n",
      "[out#0/mp4 @ 0x5e35d923b240] video:100159kB audio:1342kB subtitle:0kB other streams:0kB global headers:0kB muxing overhead: 0.135348%\n",
      "frame= 5086 fps= 38 q=-1.0 Lsize=  101638kB time=00:01:24.75 bitrate=9824.1kbits/s dup=2 drop=0 speed=0.635x    \n",
      "[libx264 @ 0x5e35d94765c0] frame I:21    Avg QP:32.48  size:283849\n",
      "[libx264 @ 0x5e35d94765c0] frame P:1282  Avg QP:36.77  size: 51397\n",
      "[libx264 @ 0x5e35d94765c0] frame B:3783  Avg QP:37.53  size:  8118\n",
      "[libx264 @ 0x5e35d94765c0] consecutive B-frames:  0.8%  0.0%  0.1% 99.1%\n",
      "[libx264 @ 0x5e35d94765c0] mb I  I16..4: 39.2% 52.0%  8.8%\n",
      "[libx264 @ 0x5e35d94765c0] mb P  I16..4:  0.1%  0.2%  0.0%  P16..4: 20.7%  4.4%  4.3%  0.0%  0.0%    skip:70.1%\n",
      "[libx264 @ 0x5e35d94765c0] mb B  I16..4:  0.0%  0.0%  0.0%  B16..8: 24.9%  0.1%  0.0%  direct: 0.0%  skip:74.9%  L0:43.2% L1:56.2% BI: 0.6%\n",
      "[libx264 @ 0x5e35d94765c0] 8x8 transform intra:53.4% inter:79.3%\n",
      "[libx264 @ 0x5e35d94765c0] coded y,uvDC,uvAC intra: 37.3% 25.0% 3.8% inter: 4.1% 0.8% 0.0%\n",
      "[libx264 @ 0x5e35d94765c0] i16 v,h,dc,p: 29% 41% 13% 17%\n",
      "[libx264 @ 0x5e35d94765c0] i8 v,h,dc,ddl,ddr,vr,hd,vl,hu: 13% 19% 33%  6%  5%  4%  9%  5%  7%\n",
      "[libx264 @ 0x5e35d94765c0] i4 v,h,dc,ddl,ddr,vr,hd,vl,hu: 18% 25% 12%  7%  7%  5% 11%  6%  7%\n",
      "[libx264 @ 0x5e35d94765c0] i8c dc,h,v,p: 75% 13% 10%  2%\n",
      "[libx264 @ 0x5e35d94765c0] Weighted P-Frames: Y:0.0% UV:0.0%\n",
      "[libx264 @ 0x5e35d94765c0] ref P L0: 58.7% 27.1% 14.2%\n",
      "[libx264 @ 0x5e35d94765c0] ref B L0: 87.1% 11.9%  1.0%\n",
      "[libx264 @ 0x5e35d94765c0] ref B L1: 97.5%  2.5%\n",
      "[libx264 @ 0x5e35d94765c0] kb/s:9679.46\n",
      "[aac @ 0x5e35da849040] Qavg: 427.578\n",
      "ffmpeg version 6.1.1-3ubuntu5 Copyright (c) 2000-2023 the FFmpeg developers\n",
      "  built with gcc 13 (Ubuntu 13.2.0-23ubuntu3)\n",
      "  configuration: --prefix=/usr --extra-version=3ubuntu5 --toolchain=hardened --libdir=/usr/lib/x86_64-linux-gnu --incdir=/usr/include/x86_64-linux-gnu --arch=amd64 --enable-gpl --disable-stripping --disable-omx --enable-gnutls --enable-libaom --enable-libass --enable-libbs2b --enable-libcaca --enable-libcdio --enable-libcodec2 --enable-libdav1d --enable-libflite --enable-libfontconfig --enable-libfreetype --enable-libfribidi --enable-libglslang --enable-libgme --enable-libgsm --enable-libharfbuzz --enable-libmp3lame --enable-libmysofa --enable-libopenjpeg --enable-libopenmpt --enable-libopus --enable-librubberband --enable-libshine --enable-libsnappy --enable-libsoxr --enable-libspeex --enable-libtheora --enable-libtwolame --enable-libvidstab --enable-libvorbis --enable-libvpx --enable-libwebp --enable-libx265 --enable-libxml2 --enable-libxvid --enable-libzimg --enable-openal --enable-opencl --enable-opengl --disable-sndio --enable-libvpl --disable-libmfx --enable-libdc1394 --enable-libdrm --enable-libiec61883 --enable-chromaprint --enable-frei0r --enable-ladspa --enable-libbluray --enable-libjack --enable-libpulse --enable-librabbitmq --enable-librist --enable-libsrt --enable-libssh --enable-libsvtav1 --enable-libx264 --enable-libzmq --enable-libzvbi --enable-lv2 --enable-sdl2 --enable-libplacebo --enable-librav1e --enable-pocketsphinx --enable-librsvg --enable-libjxl --enable-shared\n",
      "  libavutil      58. 29.100 / 58. 29.100\n",
      "  libavcodec     60. 31.102 / 60. 31.102\n",
      "  libavformat    60. 16.100 / 60. 16.100\n",
      "  libavdevice    60.  3.100 / 60.  3.100\n",
      "  libavfilter     9. 12.100 /  9. 12.100\n",
      "  libswscale      7.  5.100 /  7.  5.100\n",
      "  libswresample   4. 12.100 /  4. 12.100\n",
      "  libpostproc    57.  3.100 / 57.  3.100\n",
      "Input #0, mov,mp4,m4a,3gp,3g2,mj2, from 'ProjectMOVs/short_image_right.MOV':\n",
      "  Metadata:\n",
      "    major_brand     : qt  \n",
      "    minor_version   : 0\n",
      "    compatible_brands: qt  \n",
      "    creation_time   : 2024-12-18T19:13:51.000000Z\n",
      "    com.apple.quicktime.location.accuracy.horizontal: 31.425973\n",
      "    com.apple.quicktime.full-frame-rate-playback-intent: 0\n",
      "    com.apple.quicktime.location.ISO6709: +40.1139-088.2248+218.335/\n",
      "    com.apple.quicktime.make: Apple\n",
      "    com.apple.quicktime.model: iPhone 13 Pro\n",
      "    com.apple.quicktime.software: 18.1.1\n",
      "    com.apple.quicktime.creationdate: 2024-12-18T13:13:51-0600\n",
      "  Duration: 00:00:59.11, start: 0.000000, bitrate: 53513 kb/s\n",
      "  Stream #0:0[0x1](und): Video: hevc (Main 10) (hvc1 / 0x31637668), yuv420p10le(tv, bt2020nc/bt2020/arib-std-b67), 3840x2160, 53178 kb/s, 59.97 fps, 60 tbr, 600 tbn (default)\n",
      "    Metadata:\n",
      "      creation_time   : 2024-12-18T19:13:51.000000Z\n",
      "      handler_name    : Core Media Video\n",
      "      vendor_id       : [0][0][0][0]\n",
      "      encoder         : HEVC\n",
      "    Side data:\n",
      "      DOVI configuration record: version: 1.0, profile: 8, level: 10, rpu flag: 1, el flag: 0, bl flag: 1, compatibility id: 4\n",
      "  Stream #0:1[0x2](und): Audio: aac (LC) (mp4a / 0x6134706D), 44100 Hz, stereo, fltp, 175 kb/s (default)\n",
      "    Metadata:\n",
      "      creation_time   : 2024-12-18T19:13:51.000000Z\n",
      "      handler_name    : Core Media Audio\n",
      "      vendor_id       : [0][0][0][0]\n",
      "  Stream #0:2[0x3](und): Data: none (mebx / 0x7862656D), 0 kb/s (default)\n",
      "    Metadata:\n",
      "      creation_time   : 2024-12-18T19:13:51.000000Z\n",
      "      handler_name    : Core Media Metadata\n",
      "  Stream #0:3[0x4](und): Data: none (mebx / 0x7862656D), 24 kb/s (default)\n",
      "    Metadata:\n",
      "      creation_time   : 2024-12-18T19:13:51.000000Z\n",
      "      handler_name    : Core Media Metadata\n",
      "  Stream #0:4[0x5](und): Data: none (mebx / 0x7862656D), 99 kb/s (default)\n",
      "    Metadata:\n",
      "      creation_time   : 2024-12-18T19:13:51.000000Z\n",
      "      handler_name    : Core Media Metadata\n",
      "  Stream #0:5[0x6](und): Data: none (mebx / 0x7862656D), 5 kb/s (default)\n",
      "    Metadata:\n",
      "      creation_time   : 2024-12-18T19:13:51.000000Z\n",
      "      handler_name    : Core Media Metadata\n",
      "  Stream #0:6[0x7](und): Data: none (mebx / 0x7862656D), 0 kb/s (default)\n",
      "    Metadata:\n",
      "      creation_time   : 2024-12-18T19:13:51.000000Z\n",
      "      handler_name    : Core Media Metadata\n",
      "Stream mapping:\n",
      "  Stream #0:0 -> #0:0 (hevc (native) -> h264 (libx264))\n",
      "  Stream #0:1 -> #0:1 (aac (native) -> aac (native))\n",
      "Press [q] to stop, [?] for help\n",
      "[libx264 @ 0x593ad9e14340] using cpu capabilities: MMX2 SSE2Fast SSSE3 SSE4.2 AVX FMA3 BMI2 AVX2\n",
      "[libx264 @ 0x593ad9e14340] profile High 10, level 5.2, 4:2:0, 10-bit\n",
      "[libx264 @ 0x593ad9e14340] 264 - core 164 r3108 31e19f9 - H.264/MPEG-4 AVC codec - Copyleft 2003-2023 - http://www.videolan.org/x264.html - options: cabac=1 ref=3 deblock=1:0:0 analyse=0x3:0x113 me=hex subme=7 psy=1 psy_rd=1.00:0.00 mixed_ref=1 me_range=16 chroma_me=1 trellis=1 8x8dct=1 cqm=0 deadzone=21,11 fast_pskip=1 chroma_qp_offset=-2 threads=24 lookahead_threads=4 sliced_threads=0 nr=0 decimate=1 interlaced=0 bluray_compat=0 constrained_intra=0 bframes=3 b_pyramid=2 b_adapt=1 b_bias=0 direct=1 weightb=1 open_gop=0 weightp=2 keyint=250 keyint_min=25 scenecut=40 intra_refresh=0 rc_lookahead=40 rc=crf mbtree=1 crf=23.0 qcomp=0.60 qpmin=0 qpmax=81 qpstep=4 ip_ratio=1.40 aq=1:1.00\n",
      "Output #0, mp4, to 'ProjectMp4s/short_image_right.mp4':\n",
      "  Metadata:\n",
      "    major_brand     : qt  \n",
      "    minor_version   : 0\n",
      "    compatible_brands: qt  \n",
      "    com.apple.quicktime.creationdate: 2024-12-18T13:13:51-0600\n",
      "    com.apple.quicktime.location.accuracy.horizontal: 31.425973\n",
      "    com.apple.quicktime.full-frame-rate-playback-intent: 0\n",
      "    com.apple.quicktime.location.ISO6709: +40.1139-088.2248+218.335/\n",
      "    com.apple.quicktime.make: Apple\n",
      "    com.apple.quicktime.model: iPhone 13 Pro\n",
      "    com.apple.quicktime.software: 18.1.1\n",
      "    encoder         : Lavf60.16.100\n",
      "  Stream #0:0(und): Video: h264 (avc1 / 0x31637661), yuv420p10le(tv, bt2020nc/bt2020/arib-std-b67, progressive), 3840x2160, q=2-31, 60 fps, 15360 tbn (default)\n",
      "    Metadata:\n",
      "      creation_time   : 2024-12-18T19:13:51.000000Z\n",
      "      handler_name    : Core Media Video\n",
      "      vendor_id       : [0][0][0][0]\n",
      "      encoder         : Lavc60.31.102 libx264\n",
      "    Side data:\n",
      "      cpb: bitrate max/min/avg: 0/0/0 buffer size: 0 vbv_delay: N/A\n",
      "      DOVI configuration record: version: 1.0, profile: 8, level: 10, rpu flag: 1, el flag: 0, bl flag: 1, compatibility id: 4\n",
      "  Stream #0:1(und): Audio: aac (LC) (mp4a / 0x6134706D), 44100 Hz, stereo, fltp, 128 kb/s (default)\n",
      "    Metadata:\n",
      "      creation_time   : 2024-12-18T19:13:51.000000Z\n",
      "      handler_name    : Core Media Audio\n",
      "      vendor_id       : [0][0][0][0]\n",
      "      encoder         : Lavc60.31.102 aac\n",
      "[out#0/mp4 @ 0x593ada027380] video:81102kB audio:930kB subtitle:0kB other streams:0kB global headers:0kB muxing overhead: 0.117313%\n",
      "frame= 3547 fps= 38 q=-1.0 Lsize=   82128kB time=00:00:59.09 bitrate=11385.0kbits/s dup=2 drop=0 speed=0.626x    \n",
      "[libx264 @ 0x593ad9e14340] frame I:15    Avg QP:32.56  size:302065\n",
      "[libx264 @ 0x593ad9e14340] frame P:894   Avg QP:36.63  size: 60278\n",
      "[libx264 @ 0x593ad9e14340] frame B:2638  Avg QP:37.77  size:  9336\n",
      "[libx264 @ 0x593ad9e14340] consecutive B-frames:  0.8%  0.2%  0.2% 98.9%\n",
      "[libx264 @ 0x593ad9e14340] mb I  I16..4: 40.4% 50.7%  8.9%\n",
      "[libx264 @ 0x593ad9e14340] mb P  I16..4:  0.3%  0.3%  0.0%  P16..4: 23.1%  5.1%  5.0%  0.0%  0.0%    skip:66.1%\n",
      "[libx264 @ 0x593ad9e14340] mb B  I16..4:  0.0%  0.0%  0.0%  B16..8: 26.5%  0.1%  0.0%  direct: 0.1%  skip:73.3%  L0:42.6% L1:56.7% BI: 0.8%\n",
      "[libx264 @ 0x593ad9e14340] 8x8 transform intra:49.6% inter:78.8%\n",
      "[libx264 @ 0x593ad9e14340] coded y,uvDC,uvAC intra: 33.1% 23.4% 3.1% inter: 4.9% 1.0% 0.0%\n",
      "[libx264 @ 0x593ad9e14340] i16 v,h,dc,p: 32% 40% 13% 16%\n",
      "[libx264 @ 0x593ad9e14340] i8 v,h,dc,ddl,ddr,vr,hd,vl,hu: 13% 19% 36%  6%  5%  3%  7%  5%  6%\n",
      "[libx264 @ 0x593ad9e14340] i4 v,h,dc,ddl,ddr,vr,hd,vl,hu: 19% 25% 12%  8%  7%  6% 10%  6%  7%\n",
      "[libx264 @ 0x593ad9e14340] i8c dc,h,v,p: 77% 13%  9%  2%\n",
      "[libx264 @ 0x593ad9e14340] Weighted P-Frames: Y:0.0% UV:0.0%\n",
      "[libx264 @ 0x593ad9e14340] ref P L0: 59.0% 27.6% 13.4%\n",
      "[libx264 @ 0x593ad9e14340] ref B L0: 88.2% 10.7%  1.0%\n",
      "[libx264 @ 0x593ad9e14340] ref B L1: 97.3%  2.7%\n",
      "[libx264 @ 0x593ad9e14340] kb/s:11238.47\n",
      "[aac @ 0x593adb3f8e00] Qavg: 521.612\n",
      "ffmpeg version 6.1.1-3ubuntu5 Copyright (c) 2000-2023 the FFmpeg developers\n",
      "  built with gcc 13 (Ubuntu 13.2.0-23ubuntu3)\n",
      "  configuration: --prefix=/usr --extra-version=3ubuntu5 --toolchain=hardened --libdir=/usr/lib/x86_64-linux-gnu --incdir=/usr/include/x86_64-linux-gnu --arch=amd64 --enable-gpl --disable-stripping --disable-omx --enable-gnutls --enable-libaom --enable-libass --enable-libbs2b --enable-libcaca --enable-libcdio --enable-libcodec2 --enable-libdav1d --enable-libflite --enable-libfontconfig --enable-libfreetype --enable-libfribidi --enable-libglslang --enable-libgme --enable-libgsm --enable-libharfbuzz --enable-libmp3lame --enable-libmysofa --enable-libopenjpeg --enable-libopenmpt --enable-libopus --enable-librubberband --enable-libshine --enable-libsnappy --enable-libsoxr --enable-libspeex --enable-libtheora --enable-libtwolame --enable-libvidstab --enable-libvorbis --enable-libvpx --enable-libwebp --enable-libx265 --enable-libxml2 --enable-libxvid --enable-libzimg --enable-openal --enable-opencl --enable-opengl --disable-sndio --enable-libvpl --disable-libmfx --enable-libdc1394 --enable-libdrm --enable-libiec61883 --enable-chromaprint --enable-frei0r --enable-ladspa --enable-libbluray --enable-libjack --enable-libpulse --enable-librabbitmq --enable-librist --enable-libsrt --enable-libssh --enable-libsvtav1 --enable-libx264 --enable-libzmq --enable-libzvbi --enable-lv2 --enable-sdl2 --enable-libplacebo --enable-librav1e --enable-pocketsphinx --enable-librsvg --enable-libjxl --enable-shared\n",
      "  libavutil      58. 29.100 / 58. 29.100\n",
      "  libavcodec     60. 31.102 / 60. 31.102\n",
      "  libavformat    60. 16.100 / 60. 16.100\n",
      "  libavdevice    60.  3.100 / 60.  3.100\n",
      "  libavfilter     9. 12.100 /  9. 12.100\n",
      "  libswscale      7.  5.100 /  7.  5.100\n",
      "  libswresample   4. 12.100 /  4. 12.100\n",
      "  libpostproc    57.  3.100 / 57.  3.100\n",
      "Input #0, mov,mp4,m4a,3gp,3g2,mj2, from 'ProjectMOVs/short_image_left.MOV':\n",
      "  Metadata:\n",
      "    major_brand     : qt  \n",
      "    minor_version   : 0\n",
      "    compatible_brands: qt  \n",
      "    creation_time   : 2024-12-18T19:13:52.000000Z\n",
      "    com.apple.quicktime.location.accuracy.horizontal: 15.452731\n",
      "    com.apple.quicktime.full-frame-rate-playback-intent: 0\n",
      "    com.apple.quicktime.location.ISO6709: +40.1137-088.2246+222.694/\n",
      "    com.apple.quicktime.make: Apple\n",
      "    com.apple.quicktime.model: iPhone 15\n",
      "    com.apple.quicktime.software: 18.1.1\n",
      "    com.apple.quicktime.creationdate: 2024-12-18T13:13:51-0600\n",
      "  Duration: 00:00:58.21, start: 0.000000, bitrate: 8719 kb/s\n",
      "  Stream #0:0[0x1](und): Video: hevc (Main 10) (hvc1 / 0x31637668), yuv420p10le(tv, bt2020nc/bt2020/arib-std-b67), 1920x1080, 8471 kb/s, 29.99 fps, 30 tbr, 600 tbn (default)\n",
      "    Metadata:\n",
      "      creation_time   : 2024-12-18T19:13:52.000000Z\n",
      "      handler_name    : Core Media Video\n",
      "      vendor_id       : [0][0][0][0]\n",
      "      encoder         : HEVC\n",
      "    Side data:\n",
      "      DOVI configuration record: version: 1.0, profile: 8, level: 4, rpu flag: 1, el flag: 0, bl flag: 1, compatibility id: 4\n",
      "  Stream #0:1[0x2](und): Audio: aac (LC) (mp4a / 0x6134706D), 44100 Hz, stereo, fltp, 154 kb/s (default)\n",
      "    Metadata:\n",
      "      creation_time   : 2024-12-18T19:13:52.000000Z\n",
      "      handler_name    : Core Media Audio\n",
      "      vendor_id       : [0][0][0][0]\n",
      "  Stream #0:2[0x3](und): Data: none (mebx / 0x7862656D), 0 kb/s (default)\n",
      "    Metadata:\n",
      "      creation_time   : 2024-12-18T19:13:52.000000Z\n",
      "      handler_name    : Core Media Metadata\n",
      "  Stream #0:3[0x4](und): Data: none (mebx / 0x7862656D), 23 kb/s (default)\n",
      "    Metadata:\n",
      "      creation_time   : 2024-12-18T19:13:52.000000Z\n",
      "      handler_name    : Core Media Metadata\n",
      "  Stream #0:4[0x5](und): Data: none (mebx / 0x7862656D), 49 kb/s (default)\n",
      "    Metadata:\n",
      "      creation_time   : 2024-12-18T19:13:52.000000Z\n",
      "      handler_name    : Core Media Metadata\n",
      "  Stream #0:5[0x6](und): Data: none (mebx / 0x7862656D), 2 kb/s (default)\n",
      "    Metadata:\n",
      "      creation_time   : 2024-12-18T19:13:52.000000Z\n",
      "      handler_name    : Core Media Metadata\n",
      "  Stream #0:6[0x7](und): Data: none (mebx / 0x7862656D), 0 kb/s (default)\n",
      "    Metadata:\n",
      "      creation_time   : 2024-12-18T19:13:52.000000Z\n",
      "      handler_name    : Core Media Metadata\n",
      "Stream mapping:\n",
      "  Stream #0:0 -> #0:0 (hevc (native) -> h264 (libx264))\n",
      "  Stream #0:1 -> #0:1 (aac (native) -> aac (native))\n",
      "Press [q] to stop, [?] for help\n",
      "[libx264 @ 0x65436b431f00] using cpu capabilities: MMX2 SSE2Fast SSSE3 SSE4.2 AVX FMA3 BMI2 AVX2\n",
      "[libx264 @ 0x65436b431f00] profile High 10, level 4.0, 4:2:0, 10-bit\n",
      "[libx264 @ 0x65436b431f00] 264 - core 164 r3108 31e19f9 - H.264/MPEG-4 AVC codec - Copyleft 2003-2023 - http://www.videolan.org/x264.html - options: cabac=1 ref=3 deblock=1:0:0 analyse=0x3:0x113 me=hex subme=7 psy=1 psy_rd=1.00:0.00 mixed_ref=1 me_range=16 chroma_me=1 trellis=1 8x8dct=1 cqm=0 deadzone=21,11 fast_pskip=1 chroma_qp_offset=-2 threads=24 lookahead_threads=4 sliced_threads=0 nr=0 decimate=1 interlaced=0 bluray_compat=0 constrained_intra=0 bframes=3 b_pyramid=2 b_adapt=1 b_bias=0 direct=1 weightb=1 open_gop=0 weightp=2 keyint=250 keyint_min=25 scenecut=40 intra_refresh=0 rc_lookahead=40 rc=crf mbtree=1 crf=23.0 qcomp=0.60 qpmin=0 qpmax=81 qpstep=4 ip_ratio=1.40 aq=1:1.00\n",
      "Output #0, mp4, to 'ProjectMp4s/short_image_left.mp4':\n",
      "  Metadata:\n",
      "    major_brand     : qt  \n",
      "    minor_version   : 0\n",
      "    compatible_brands: qt  \n",
      "    com.apple.quicktime.creationdate: 2024-12-18T13:13:51-0600\n",
      "    com.apple.quicktime.location.accuracy.horizontal: 15.452731\n",
      "    com.apple.quicktime.full-frame-rate-playback-intent: 0\n",
      "    com.apple.quicktime.location.ISO6709: +40.1137-088.2246+222.694/\n",
      "    com.apple.quicktime.make: Apple\n",
      "    com.apple.quicktime.model: iPhone 15\n",
      "    com.apple.quicktime.software: 18.1.1\n",
      "    encoder         : Lavf60.16.100\n",
      "  Stream #0:0(und): Video: h264 (avc1 / 0x31637661), yuv420p10le(tv, bt2020nc/bt2020/arib-std-b67, progressive), 1920x1080, q=2-31, 30 fps, 15360 tbn (default)\n",
      "    Metadata:\n",
      "      creation_time   : 2024-12-18T19:13:52.000000Z\n",
      "      handler_name    : Core Media Video\n",
      "      vendor_id       : [0][0][0][0]\n",
      "      encoder         : Lavc60.31.102 libx264\n",
      "    Side data:\n",
      "      cpb: bitrate max/min/avg: 0/0/0 buffer size: 0 vbv_delay: N/A\n",
      "      DOVI configuration record: version: 1.0, profile: 8, level: 4, rpu flag: 1, el flag: 0, bl flag: 1, compatibility id: 4\n",
      "  Stream #0:1(und): Audio: aac (LC) (mp4a / 0x6134706D), 44100 Hz, stereo, fltp, 128 kb/s (default)\n",
      "    Metadata:\n",
      "      creation_time   : 2024-12-18T19:13:52.000000Z\n",
      "      handler_name    : Core Media Audio\n",
      "      vendor_id       : [0][0][0][0]\n",
      "      encoder         : Lavc60.31.102 aac\n",
      "[out#0/mp4 @ 0x65436b491580] video:14838kB audio:915kB subtitle:0kB other streams:0kB global headers:0kB muxing overhead: 0.400654%\n",
      "frame= 1746 fps=147 q=-1.0 Lsize=   15816kB time=00:00:58.18 bitrate=2226.6kbits/s speed= 4.9x    \n",
      "[libx264 @ 0x65436b431f00] frame I:7     Avg QP:28.51  size:129630\n",
      "[libx264 @ 0x65436b431f00] frame P:440   Avg QP:31.51  size: 25120\n",
      "[libx264 @ 0x65436b431f00] frame B:1299  Avg QP:34.15  size:  2489\n",
      "[libx264 @ 0x65436b431f00] consecutive B-frames:  0.8%  0.0%  0.0% 99.2%\n",
      "[libx264 @ 0x65436b431f00] mb I  I16..4: 38.7% 46.7% 14.6%\n",
      "[libx264 @ 0x65436b431f00] mb P  I16..4:  3.5%  1.4%  0.0%  P16..4: 31.3%  6.8%  6.1%  0.0%  0.0%    skip:51.0%\n",
      "[libx264 @ 0x65436b431f00] mb B  I16..4:  0.0%  0.0%  0.0%  B16..8: 25.1%  0.5%  0.1%  direct: 0.1%  skip:74.0%  L0:42.8% L1:52.7% BI: 4.4%\n",
      "[libx264 @ 0x65436b431f00] 8x8 transform intra:33.4% inter:72.8%\n",
      "[libx264 @ 0x65436b431f00] coded y,uvDC,uvAC intra: 12.2% 20.3% 2.7% inter: 4.7% 1.7% 0.0%\n",
      "[libx264 @ 0x65436b431f00] i16 v,h,dc,p: 27% 29% 13% 31%\n",
      "[libx264 @ 0x65436b431f00] i8 v,h,dc,ddl,ddr,vr,hd,vl,hu: 10% 14% 62%  1%  2%  2%  3%  1%  4%\n",
      "[libx264 @ 0x65436b431f00] i4 v,h,dc,ddl,ddr,vr,hd,vl,hu: 24% 26% 13%  3%  7%  6%  9%  3% 10%\n",
      "[libx264 @ 0x65436b431f00] i8c dc,h,v,p: 72% 14% 13%  1%\n",
      "[libx264 @ 0x65436b431f00] Weighted P-Frames: Y:0.0% UV:0.0%\n",
      "[libx264 @ 0x65436b431f00] ref P L0: 55.6% 26.3% 18.1%\n",
      "[libx264 @ 0x65436b431f00] ref B L0: 82.7% 13.9%  3.4%\n",
      "[libx264 @ 0x65436b431f00] ref B L1: 94.3%  5.7%\n",
      "[libx264 @ 0x65436b431f00] kb/s:2088.48\n",
      "[aac @ 0x65436c8638c0] Qavg: 617.329\n"
     ]
    }
   ],
   "source": [
    "# for filename in os.listdir(mov_folder):\n",
    "    # input_file = os.path.join(mov_folder, filename)\n",
    "    # new_name = filename.lower()[:-4] + \".mp4\"\n",
    "    # output_file = os.path.join(mp4_folder, new_name)\n",
    "\n",
    "    # ffmpeg.input(input_file).output(output_file, vcodec='libx264', acodec='aac').run()\n"
   ]
  },
  {
   "cell_type": "code",
   "execution_count": 1,
   "metadata": {},
   "outputs": [],
   "source": [
    "fps_folder = \"ProjectFPS24\""
   ]
  },
  {
   "cell_type": "code",
   "execution_count": 2,
   "metadata": {},
   "outputs": [],
   "source": [
    "import subprocess\n",
    "def get_frames(video_path, output_path):\n",
    "\n",
    "    com = [\n",
    "        \"ffmpeg\",\n",
    "        \"-i\", video_path,\n",
    "        \"-vf\", \"fps=24\",\n",
    "        f\"{output_path}/frame_%04d.png\"\n",
    "    ]\n",
    "    subprocess.run(com)\n",
    "    # ffmpeg.input(video_path, framerate=24).output(os.path.join(output_path, 'frame_%04d.jpg')).run()"
   ]
  },
  {
   "cell_type": "code",
   "execution_count": 3,
   "metadata": {},
   "outputs": [
    {
     "name": "stderr",
     "output_type": "stream",
     "text": [
      "ffmpeg version 6.1.1-3ubuntu5 Copyright (c) 2000-2023 the FFmpeg developers\n",
      "  built with gcc 13 (Ubuntu 13.2.0-23ubuntu3)\n",
      "  configuration: --prefix=/usr --extra-version=3ubuntu5 --toolchain=hardened --libdir=/usr/lib/x86_64-linux-gnu --incdir=/usr/include/x86_64-linux-gnu --arch=amd64 --enable-gpl --disable-stripping --disable-omx --enable-gnutls --enable-libaom --enable-libass --enable-libbs2b --enable-libcaca --enable-libcdio --enable-libcodec2 --enable-libdav1d --enable-libflite --enable-libfontconfig --enable-libfreetype --enable-libfribidi --enable-libglslang --enable-libgme --enable-libgsm --enable-libharfbuzz --enable-libmp3lame --enable-libmysofa --enable-libopenjpeg --enable-libopenmpt --enable-libopus --enable-librubberband --enable-libshine --enable-libsnappy --enable-libsoxr --enable-libspeex --enable-libtheora --enable-libtwolame --enable-libvidstab --enable-libvorbis --enable-libvpx --enable-libwebp --enable-libx265 --enable-libxml2 --enable-libxvid --enable-libzimg --enable-openal --enable-opencl --enable-opengl --disable-sndio --enable-libvpl --disable-libmfx --enable-libdc1394 --enable-libdrm --enable-libiec61883 --enable-chromaprint --enable-frei0r --enable-ladspa --enable-libbluray --enable-libjack --enable-libpulse --enable-librabbitmq --enable-librist --enable-libsrt --enable-libssh --enable-libsvtav1 --enable-libx264 --enable-libzmq --enable-libzvbi --enable-lv2 --enable-sdl2 --enable-libplacebo --enable-librav1e --enable-pocketsphinx --enable-librsvg --enable-libjxl --enable-shared\n",
      "  libavutil      58. 29.100 / 58. 29.100\n",
      "  libavcodec     60. 31.102 / 60. 31.102\n",
      "  libavformat    60. 16.100 / 60. 16.100\n",
      "  libavdevice    60.  3.100 / 60.  3.100\n",
      "  libavfilter     9. 12.100 /  9. 12.100\n",
      "  libswscale      7.  5.100 /  7.  5.100\n",
      "  libswresample   4. 12.100 /  4. 12.100\n",
      "  libpostproc    57.  3.100 / 57.  3.100\n",
      "Input #0, mov,mp4,m4a,3gp,3g2,mj2, from 'ProjectMp4s/long_image_left.mp4':\n",
      "  Metadata:\n",
      "    major_brand     : isom\n",
      "    minor_version   : 512\n",
      "    compatible_brands: isomdby1iso2avc1mp41\n",
      "    encoder         : Lavf60.16.100\n",
      "  Duration: 00:01:24.73, start: 0.000000, bitrate: 1690 kb/s\n",
      "  Stream #0:0[0x1](und): Video: h264 (High 10) (avc1 / 0x31637661), yuv420p10le(tv, bt2020nc/bt2020/arib-std-b67, progressive), 1920x1080, 1552 kb/s, 30 fps, 30 tbr, 15360 tbn (default)\n",
      "    Metadata:\n",
      "      handler_name    : Core Media Video\n",
      "      vendor_id       : [0][0][0][0]\n",
      "      encoder         : Lavc60.31.102 libx264\n",
      "  Stream #0:1[0x2](und): Audio: aac (LC) (mp4a / 0x6134706D), 44100 Hz, stereo, fltp, 129 kb/s (default)\n",
      "    Metadata:\n",
      "      handler_name    : Core Media Audio\n",
      "      vendor_id       : [0][0][0][0]\n",
      "Stream mapping:\n",
      "  Stream #0:0 -> #0:0 (h264 (native) -> png (native))\n",
      "Press [q] to stop, [?] for help\n",
      "Output #0, image2, to 'ProjectFPS24/long_video_left_png/frame_%04d.png':\n",
      "  Metadata:\n",
      "    major_brand     : isom\n",
      "    minor_version   : 512\n",
      "    compatible_brands: isomdby1iso2avc1mp41\n",
      "    encoder         : Lavf60.16.100\n",
      "  Stream #0:0(und): Video: png, rgb48be(pc, gbr/bt2020/arib-std-b67, progressive), 1920x1080, q=2-31, 200 kb/s, 24 fps, 24 tbn (default)\n",
      "    Metadata:\n",
      "      handler_name    : Core Media Video\n",
      "      vendor_id       : [0][0][0][0]\n",
      "      encoder         : Lavc60.31.102 png\n",
      "[out#0/image2 @ 0x5efc39746800] video:10008954kB audio:0kB subtitle:0kB other streams:0kB global headers:0kB muxing overhead: unknown\n",
      "frame= 2033 fps= 78 q=-0.0 Lsize=N/A time=00:01:24.66 bitrate=N/A speed=3.24x    \n"
     ]
    }
   ],
   "source": [
    "get_frames('ProjectMp4s/long_image_left.mp4', 'ProjectFPS24/long_video_left_png')"
   ]
  },
  {
   "cell_type": "code",
   "execution_count": 3,
   "metadata": {},
   "outputs": [
    {
     "name": "stderr",
     "output_type": "stream",
     "text": [
      "ffmpeg version 6.1.1-3ubuntu5 Copyright (c) 2000-2023 the FFmpeg developers\n",
      "  built with gcc 13 (Ubuntu 13.2.0-23ubuntu3)\n",
      "  configuration: --prefix=/usr --extra-version=3ubuntu5 --toolchain=hardened --libdir=/usr/lib/x86_64-linux-gnu --incdir=/usr/include/x86_64-linux-gnu --arch=amd64 --enable-gpl --disable-stripping --disable-omx --enable-gnutls --enable-libaom --enable-libass --enable-libbs2b --enable-libcaca --enable-libcdio --enable-libcodec2 --enable-libdav1d --enable-libflite --enable-libfontconfig --enable-libfreetype --enable-libfribidi --enable-libglslang --enable-libgme --enable-libgsm --enable-libharfbuzz --enable-libmp3lame --enable-libmysofa --enable-libopenjpeg --enable-libopenmpt --enable-libopus --enable-librubberband --enable-libshine --enable-libsnappy --enable-libsoxr --enable-libspeex --enable-libtheora --enable-libtwolame --enable-libvidstab --enable-libvorbis --enable-libvpx --enable-libwebp --enable-libx265 --enable-libxml2 --enable-libxvid --enable-libzimg --enable-openal --enable-opencl --enable-opengl --disable-sndio --enable-libvpl --disable-libmfx --enable-libdc1394 --enable-libdrm --enable-libiec61883 --enable-chromaprint --enable-frei0r --enable-ladspa --enable-libbluray --enable-libjack --enable-libpulse --enable-librabbitmq --enable-librist --enable-libsrt --enable-libssh --enable-libsvtav1 --enable-libx264 --enable-libzmq --enable-libzvbi --enable-lv2 --enable-sdl2 --enable-libplacebo --enable-librav1e --enable-pocketsphinx --enable-librsvg --enable-libjxl --enable-shared\n",
      "  libavutil      58. 29.100 / 58. 29.100\n",
      "  libavcodec     60. 31.102 / 60. 31.102\n",
      "  libavformat    60. 16.100 / 60. 16.100\n",
      "  libavdevice    60.  3.100 / 60.  3.100\n",
      "  libavfilter     9. 12.100 /  9. 12.100\n",
      "  libswscale      7.  5.100 /  7.  5.100\n",
      "  libswresample   4. 12.100 /  4. 12.100\n",
      "  libpostproc    57.  3.100 / 57.  3.100\n",
      "Input #0, image2, from 'long_video_out/frame_%04d.png':\n",
      "  Duration: 00:00:12.92, start: 0.000000, bitrate: N/A\n",
      "  Stream #0:0: Video: png, rgba(pc, gbr/unknown/unknown), 1000x1000 [SAR 3937:3937 DAR 1:1], 24 fps, 24 tbr, 24 tbn\n",
      "Stream mapping:\n",
      "  Stream #0:0 -> #0:0 (png (native) -> h264 (libx264))\n",
      "Press [q] to stop, [?] for help\n",
      "[libx264 @ 0x57904c178140] using SAR=1/1\n",
      "[libx264 @ 0x57904c178140] using cpu capabilities: MMX2 SSE2Fast SSSE3 SSE4.2 AVX FMA3 BMI2 AVX2 AVX512\n",
      "[libx264 @ 0x57904c178140] profile High 4:4:4 Predictive, level 3.2, 4:4:4, 8-bit\n",
      "[libx264 @ 0x57904c178140] 264 - core 164 r3108 31e19f9 - H.264/MPEG-4 AVC codec - Copyleft 2003-2023 - http://www.videolan.org/x264.html - options: cabac=1 ref=3 deblock=1:0:0 analyse=0x3:0x113 me=hex subme=7 psy=1 psy_rd=1.00:0.00 mixed_ref=1 me_range=16 chroma_me=1 trellis=1 8x8dct=1 cqm=0 deadzone=21,11 fast_pskip=1 chroma_qp_offset=4 threads=24 lookahead_threads=4 sliced_threads=0 nr=0 decimate=1 interlaced=0 bluray_compat=0 constrained_intra=0 bframes=3 b_pyramid=2 b_adapt=1 b_bias=0 direct=1 weightb=1 open_gop=0 weightp=2 keyint=250 keyint_min=24 scenecut=40 intra_refresh=0 rc_lookahead=40 rc=crf mbtree=1 crf=23.0 qcomp=0.60 qpmin=0 qpmax=69 qpstep=4 ip_ratio=1.40 aq=1:1.00\n",
      "Output #0, mp4, to 'long_video_recombined.mp4':\n",
      "  Metadata:\n",
      "    encoder         : Lavf60.16.100\n",
      "  Stream #0:0: Video: h264 (avc1 / 0x31637661), yuv444p(tv, progressive), 1000x1000 [SAR 1:1 DAR 1:1], q=2-31, 24 fps, 12288 tbn\n",
      "    Metadata:\n",
      "      encoder         : Lavc60.31.102 libx264\n",
      "    Side data:\n",
      "      cpb: bitrate max/min/avg: 0/0/0 buffer size: 0 vbv_delay: N/A\n",
      "[out#0/mp4 @ 0x57904c176700] video:405kB audio:0kB subtitle:0kB other streams:0kB global headers:0kB muxing overhead: 1.102796%\n",
      "frame=  310 fps=302 q=-1.0 Lsize=     409kB time=00:00:12.79 bitrate= 262.1kbits/s speed=12.5x    \n",
      "[libx264 @ 0x57904c178140] frame I:2     Avg QP:12.95  size: 28741\n",
      "[libx264 @ 0x57904c178140] frame P:78    Avg QP:15.52  size:  3560\n",
      "[libx264 @ 0x57904c178140] frame B:230   Avg QP:16.92  size:   342\n",
      "[libx264 @ 0x57904c178140] consecutive B-frames:  0.6%  0.0%  3.9% 95.5%\n",
      "[libx264 @ 0x57904c178140] mb I  I16..4:  9.2% 76.7% 14.1%\n",
      "[libx264 @ 0x57904c178140] mb P  I16..4:  0.2%  0.2%  0.1%  P16..4: 11.2%  3.6%  2.0%  0.0%  0.0%    skip:82.6%\n",
      "[libx264 @ 0x57904c178140] mb B  I16..4:  0.0%  0.0%  0.0%  B16..8:  7.5%  0.1%  0.0%  direct: 0.0%  skip:92.4%  L0:36.1% L1:63.3% BI: 0.6%\n",
      "[libx264 @ 0x57904c178140] 8x8 transform intra:68.8% inter:68.2%\n",
      "[libx264 @ 0x57904c178140] coded y,u,v intra: 17.9% 8.3% 5.5% inter: 1.0% 0.2% 0.1%\n",
      "[libx264 @ 0x57904c178140] i16 v,h,dc,p: 38% 36%  6% 21%\n",
      "[libx264 @ 0x57904c178140] i8 v,h,dc,ddl,ddr,vr,hd,vl,hu: 36% 11% 45%  1%  1%  1%  2%  1%  1%\n",
      "[libx264 @ 0x57904c178140] i4 v,h,dc,ddl,ddr,vr,hd,vl,hu: 30% 34% 10%  2%  5%  3%  8%  2%  6%\n",
      "[libx264 @ 0x57904c178140] Weighted P-Frames: Y:0.0% UV:0.0%\n",
      "[libx264 @ 0x57904c178140] ref P L0: 62.7%  5.3% 19.6% 12.5%\n",
      "[libx264 @ 0x57904c178140] ref B L0: 87.3%  9.8%  2.9%\n",
      "[libx264 @ 0x57904c178140] ref B L1: 96.6%  3.4%\n",
      "[libx264 @ 0x57904c178140] kb/s:256.29\n"
     ]
    },
    {
     "data": {
      "text/plain": [
       "(None, None)"
      ]
     },
     "execution_count": 3,
     "metadata": {},
     "output_type": "execute_result"
    }
   ],
   "source": [
    "frame_pattern = os.path.join('long_video_out', 'frame_%04d.png')\n",
    "\n",
    "\n",
    "ffmpeg.input(frame_pattern, framerate=24).output('long_video_recombined.mp4').run()"
   ]
  },
  {
   "cell_type": "code",
   "execution_count": null,
   "metadata": {},
   "outputs": [],
   "source": []
  }
 ],
 "metadata": {
  "kernelspec": {
   "display_name": "final",
   "language": "python",
   "name": "python3"
  },
  "language_info": {
   "codemirror_mode": {
    "name": "ipython",
    "version": 3
   },
   "file_extension": ".py",
   "mimetype": "text/x-python",
   "name": "python",
   "nbconvert_exporter": "python",
   "pygments_lexer": "ipython3",
   "version": "3.10.16"
  }
 },
 "nbformat": 4,
 "nbformat_minor": 2
}
